<?xml version="1.0" standalone="no"?><!DOCTYPE svg PUBLIC "-//W3C//DTD SVG 1.1//EN" "http://www.w3.org/Graphics/SVG/1.1/DTD/svg11.dtd"><svg t="1556099540927" class="icon" style="" viewBox="0 0 1024 1024" version="1.1" xmlns="http://www.w3.org/2000/svg" p-id="3200" xmlns:xlink="http://www.w3.org/1999/xlink" width="200" height="200"><defs><style type="text/css"></style></defs><path d="M552.404764 334.506667H471.622542a124.017778 124.017778 0 0 1-121.173333-125.155556V125.155556A124.017778 124.017778 0 0 1 471.622542 0h80.782222a124.017778 124.017778 0 0 1 121.173334 125.155556v83.626666a124.017778 124.017778 0 0 1-121.173334 125.724445zM193.435876 1024H113.791431a118.328889 118.328889 0 0 1-113.777778-120.035556v-80.213333a118.328889 118.328889 0 0 1 113.777778-120.035555h79.644445a118.328889 118.328889 0 0 1 113.777777 120.035555v80.213333a118.328889 118.328889 0 0 1-113.777777 120.035556zM550.698098 1024H473.329209a118.328889 118.328889 0 0 1-113.777778-120.035556v-80.213333a118.328889 118.328889 0 0 1 113.777778-120.035555h77.368889a118.328889 118.328889 0 0 1 113.777778 120.035555v80.213333a118.328889 118.328889 0 0 1-113.777778 120.035556zM910.235876 1024h-79.644445a118.328889 118.328889 0 0 1-113.777778-120.035556v-80.213333a118.328889 118.328889 0 0 1 113.777778-120.035555H910.235876a118.328889 118.328889 0 0 1 113.777777 120.035555v80.213333A118.328889 118.328889 0 0 1 910.235876 1024zM483.569209 334.506667h56.888889v369.208889h-56.888889z" p-id="3201"></path><path d="M897.72032 703.715556h-56.888889V625.777778a155.875556 155.875556 0 0 0-152.462222-155.875556H335.658098A155.875556 155.875556 0 0 0 183.195876 625.777778v75.662222h-56.888889V625.777778A212.764444 212.764444 0 0 1 335.658098 413.013333h352.711111A212.764444 212.764444 0 0 1 897.72032 625.777778z" p-id="3202"></path></svg>