<?xml version="1.0" standalone="no"?><!DOCTYPE svg PUBLIC "-//W3C//DTD SVG 1.1//EN" "http://www.w3.org/Graphics/SVG/1.1/DTD/svg11.dtd"><svg t="1555901571020" class="icon" style="" viewBox="0 0 1024 1024" version="1.1" xmlns="http://www.w3.org/2000/svg" p-id="3093" xmlns:xlink="http://www.w3.org/1999/xlink" width="200" height="200"><defs><style type="text/css"></style></defs><path d="M911.860951 575.943755 895.962504 575.943755l0-127.987501L543.996875 447.956254l0-63.993751 95.290694 0c70.993067 0 128.687433-57.794356 128.687433-128.687433l0-126.487648c0-70.993067-57.794356-128.687433-128.687433-128.687433L384.71243 0.09999c-70.993067 0-128.687433 57.794356-128.687433 128.687433L256.024998 255.175081c0 70.993067 57.794356 128.687433 128.687433 128.687433L480.003125 383.862513l0 63.993751L128.037496 447.856264l0 127.987501-15.898447 0c-61.793965 0-112.089054 50.295088-112.089054 112.089054l0 223.778147c0 61.793965 50.295088 112.089054 112.089054 112.089054l95.790645 0c61.793965 0 112.089054-50.295088 112.089054-112.089054L320.018748 688.032809c0-61.793965-50.295088-112.089054-112.089054-112.089054L192.031247 575.943755l0-63.993751 287.971878 0 0 64.093741c-53.394786 2.799727-95.990626 47.095401-95.990626 101.190118l0 245.176057c0 55.894542 45.495557 101.390099 101.390099 101.390099l53.194805 0c55.894542 0 101.390099-45.495557 101.390099-101.390099L639.987501 677.333854c0-54.094717-42.59584-98.390392-95.990626-101.190118l0-64.093741 287.971878 0 0 63.993751-15.898447 0c-61.793965 0-112.089054 50.295088-112.089054 112.089054l0 223.778147c0 61.793965 50.295088 112.089054 112.089054 112.089054l95.790645 0c61.793965 0 112.089054-50.295088 112.089054-112.089054L1023.950005 688.032809C1023.950005 626.238844 973.654917 575.943755 911.860951 575.943755zM320.018748 255.175081l0-126.487648c0-35.696514 28.997168-64.693682 64.693682-64.693682l254.475149 0c35.696514 0 64.693682 28.997168 64.693682 64.693682L703.881262 255.175081c0 35.696514-28.997168 64.693682-64.693682 64.693682L384.71243 319.868763C349.015916 319.968753 320.018748 290.871595 320.018748 255.175081zM256.024998 688.032809l0 223.778147c0 26.497412-21.597891 48.095303-48.095303 48.095303l-95.790645 0c-26.497412 0-48.095303-21.597891-48.095303-48.095303L64.043746 688.032809c0-26.497412 21.597891-48.095303 48.095303-48.095303l95.790645 0C234.427107 639.937506 256.024998 661.535397 256.024998 688.032809zM575.993751 677.333854l0 245.176057c0 20.597988-16.79836 37.396348-37.396348 37.396348l-53.194805 0c-20.597988 0-37.396348-16.79836-37.396348-37.396348L448.006249 677.333854c0-20.597988 16.79836-37.396348 37.396348-37.396348l53.194805 0C559.195391 639.937506 575.993751 656.635875 575.993751 677.333854zM959.956254 911.810956c0 26.497412-21.597891 48.095303-48.095303 48.095303l-95.790645 0c-26.497412 0-48.095303-21.597891-48.095303-48.095303L767.975002 688.032809c0-26.497412 21.597891-48.095303 48.095303-48.095303l95.790645 0c26.497412 0 48.095303 21.597891 48.095303 48.095303L959.956254 911.810956z" p-id="3094"></path></svg>