<?xml version="1.0" standalone="no"?><!DOCTYPE svg PUBLIC "-//W3C//DTD SVG 1.1//EN" "http://www.w3.org/Graphics/SVG/1.1/DTD/svg11.dtd"><svg t="1583743207423" class="icon" viewBox="0 0 3345 1024" version="1.1" xmlns="http://www.w3.org/2000/svg" p-id="3251" width="418.125" height="128" xmlns:xlink="http://www.w3.org/1999/xlink"><defs><style type="text/css"></style></defs><path d="M1297.037844 136.553054V68.287905a22.75505 22.75505 0 0 1 22.755049-22.75505h375.458324a22.75505 22.75505 0 0 1 22.75505 22.75505v68.265149a22.75505 22.75505 0 0 1-22.75505 22.75505h-155.746939a22.75505 22.75505 0 0 0-20.866381 13.687163L1417.730628 405.062643a11.377525 11.377525 0 0 0 10.433191 15.917157H1695.251217a22.75505 22.75505 0 0 1 22.75505 22.75505v511.988623a22.75505 22.75505 0 0 1-22.75505 22.75505h-375.458324a22.75505 22.75505 0 0 1-22.755049-22.75505V425.724228a22.75505 22.75505 0 0 1 1.888669-9.067887l104.969045-241.431079a11.377525 11.377525 0 0 0-10.43319-15.917158H1319.792893a22.75505 22.75505 0 0 1-22.755049-22.75505z m295.815648 398.213373h-170.662874a11.377525 11.377525 0 0 0-11.377525 11.377525v307.193174a11.377525 11.377525 0 0 0 11.377525 11.377525h170.662874a11.377525 11.377525 0 0 0 11.377525-11.377525V546.143952a11.377525 11.377525 0 0 0-11.377525-11.377525z m659.896447-91.020199v511.988622a22.75505 22.75505 0 0 1-22.75505 22.75505h-238.928024a22.75505 22.75505 0 0 1-22.75505-22.75505v-68.265149a22.75505 22.75505 0 0 1 22.75505-22.75505h136.5303a11.377525 11.377525 0 0 0 11.377524-11.377525V546.143952a11.377525 11.377525 0 0 0-11.377524-11.377525h-341.325749a22.75505 22.75505 0 0 1-22.75505-22.755049V68.287905a22.75505 22.75505 0 0 1 22.75505-22.75505h386.835848a22.75505 22.75505 0 0 1 22.75505 22.75505v261.683073a22.75505 22.75505 0 0 1-22.75505 22.75505h-68.265149a22.75505 22.75505 0 0 1-22.75505-22.75505V170.685629a11.377525 11.377525 0 0 0-11.377525-11.377525h-182.040399a11.377525 11.377525 0 0 0-11.377525 11.377525v238.928024a11.377525 11.377525 0 0 0 11.377525 11.377525h341.325748a22.75505 22.75505 0 0 1 22.75505 22.75505z m-489.233573 295.815648v-68.265149a22.75505 22.75505 0 0 1 22.75505-22.75505h261.683074a22.75505 22.75505 0 0 1 22.75505 22.75505v68.265149a22.75505 22.75505 0 0 1-22.75505 22.75505h-261.683074a22.75505 22.75505 0 0 1-22.75505-22.75505z m739.539122-580.253772a22.75505 22.75505 0 0 1-22.75505-22.75505V68.287905a22.75505 22.75505 0 0 1 22.75505-22.75505h728.161596a22.75505 22.75505 0 0 1 22.75505 22.75505v68.265149a22.75505 22.75505 0 0 1-22.75505 22.75505h-728.161596z m626.196218 409.590898C3249.284594 568.899002 3344.992334 644.878114 3344.992334 763.454679c0 133.117042-92.897491 215.035221-216.172974 215.035221V864.714651c51.369525 0 92.897491-39.76445 92.897491-101.259972 0-121.546099-208.83447-158.432035-297.69294 23.631119C2937.676941 612.247372 3049.745561 568.899002 3129.251706 568.899002zM2457.545388 341.348503h819.181796a22.75505 22.75505 0 0 1 22.75505 22.75505v68.26515a22.75505 22.75505 0 0 1-22.75505 22.75505h-552.902202a22.75505 22.75505 0 0 0-21.389747 15.018333l-136.985401 379.326681a11.377525 11.377525 0 0 0 10.694874 15.245884H3128.81936v113.775249h-671.273972a22.75505 22.75505 0 0 1-22.75505-22.75505v-87.038065a22.75505 22.75505 0 0 1 1.353925-7.736717l141.047177-390.590432a11.377525 11.377525 0 0 0-10.694873-15.245883H2457.545388a22.75505 22.75505 0 0 1-22.75505-22.75505v-68.26515a22.75505 22.75505 0 0 1 22.75505-22.75505z" fill="#FFFFFF" p-id="3252"></path><path d="M978.467145 409.613653H455.100998v0.011378A45.5101 45.5101 0 0 0 409.590898 455.123753l-0.04551 113.775249a45.5101 45.5101 0 0 0 45.5101 45.521478L773.671696 614.409102a45.5101 45.5101 0 0 1 45.5101 45.5101v22.75505c0 75.398858-61.131442 136.530299-136.530299 136.530299H250.271416a45.5101 45.5101 0 0 1-45.5101-45.5101V341.348503h-0.011377c0-75.398858 61.120064-136.530299 136.530299-136.530299h637.061754v-0.022755a45.5101 45.5101 0 0 0 45.5101-45.487345l0.102398-113.775249H1023.977245a45.5101 45.5101 0 0 0-45.5101-45.532855L341.325748 0.022755C152.822915 0.022755 0 152.84567 0 341.348503v637.141397a45.5101 45.5101 0 0 0 45.5101 45.5101h671.273971c169.661652 0 307.193173-137.531522 307.193174-307.193173V455.123753a45.5101 45.5101 0 0 0-45.5101-45.5101z" fill="#C71D23" p-id="3253"></path></svg>