<?xml version="1.0" standalone="no"?><!DOCTYPE svg PUBLIC "-//W3C//DTD SVG 1.1//EN" "http://www.w3.org/Graphics/SVG/1.1/DTD/svg11.dtd"><svg t="1583725781935" class="icon" viewBox="0 0 1024 1024" version="1.1" xmlns="http://www.w3.org/2000/svg" p-id="1327" xmlns:xlink="http://www.w3.org/1999/xlink" width="200" height="200"><defs><style type="text/css"></style></defs><path d="M512 1019.920319a509.960159 509.960159 0 1 1 509.960159-509.96016 510.51648 510.51648 0 0 1-509.960159 509.96016z" fill="#FFFEFF" p-id="1328"></path><path d="M823.539297 486.872872a391.093082 391.093082 0 0 1-11.590003 93.554509l-1.947121 6.768562q-3.059761 9.921043-6.675842 18.544006l-2.874321 6.675842c-31.52481 69.169142-96.05795 94.94531-200.460703 105.700833 33.842811 21.325607 43.485694 48.028975 43.485694 120.536038s-1.11264 82.057226-0.74176 98.654111c1.29808 52.479536 9.272003 74.732343-37.088012 76.957624a716.911264 716.911264 0 0 1-108.946034 9.272003c-46.360014-1.11264-91.978269-6.861282-100.044911-13.166244s-1.20536-45.618254-1.20536-74.176023c0-25.034408-0.55632-89.382108-0.556321-89.382108a314.691778 314.691778 0 0 1-47.658094 3.337921c-70.559942 0-92.720029-44.969214-103.568273-70.189062a122.483158 122.483158 0 0 0-50.810576-60.638899c-11.682724-7.603042-14.371604-16.504165-0.83448-18.544006 62.4933-11.775444 78.533865 70.838102 120.536038 84.004346 29.763129 9.272003 68.056501 5.377762 87.156827-6.954002a90.865628 90.865628 0 0 1 35.789931-58.599058C329.156103 708.659181 266.291923 671.75661 233.839913 612.508511l-3.523361-6.583122a188.963419 188.963419 0 0 1-8.159363-18.544005l-2.50344-6.768563a320.99674 320.99674 0 0 1-14.742485-103.011952c0-68.334661 21.325607-94.110829 49.883376-130.549801-21.789207-77.884824 7.881202-131.106121 7.881202-131.106121s45.896414-9.272003 132.775082 52.664977c47.101775-20.120246 172.551974-21.881927 231.800072-4.450561 36.438971-24.107208 103.104672-58.320898 129.808041-48.678016 7.324882 11.682724 22.994567 45.896414 9.272002 120.536038 9.550163 16.318725 57.022818 51.645056 57.208258 150.855487z" fill="#24292E" p-id="1329"></path></svg>