<?xml version="1.0" standalone="no"?><!DOCTYPE svg PUBLIC "-//W3C//DTD SVG 1.1//EN" "http://www.w3.org/Graphics/SVG/1.1/DTD/svg11.dtd"><svg t="1552553206873" class="icon" style="" viewBox="0 0 1024 1024" version="1.1" xmlns="http://www.w3.org/2000/svg" p-id="16333" xmlns:xlink="http://www.w3.org/1999/xlink" width="200" height="200"><defs><style type="text/css"></style></defs><path d="M896 1024h-213.333333a128 128 0 0 1-128-128v-213.333333a128 128 0 0 1 128-128h213.333333a128 128 0 0 1 128 128v213.333333a128 128 0 0 1-128 128z m-213.333333-384a42.666667 42.666667 0 0 0-42.666667 42.666667v213.333333a42.666667 42.666667 0 0 0 42.666667 42.666667h213.333333a42.666667 42.666667 0 0 0 42.666667-42.666667v-213.333333a42.666667 42.666667 0 0 0-42.666667-42.666667z m-341.333334 384H128a128 128 0 0 1-128-128v-213.333333a128 128 0 0 1 128-128h213.333333a128 128 0 0 1 128 128v213.333333a128 128 0 0 1-128 128z m-213.333333-384a42.666667 42.666667 0 0 0-42.666667 42.666667v213.333333a42.666667 42.666667 0 0 0 42.666667 42.666667h213.333333a42.666667 42.666667 0 0 0 42.666667-42.666667v-213.333333a42.666667 42.666667 0 0 0-42.666667-42.666667z m768-170.666667h-213.333333a128 128 0 0 1-128-128V128a128 128 0 0 1 128-128h213.333333a128 128 0 0 1 128 128v213.333333a128 128 0 0 1-128 128z m-213.333333-384a42.666667 42.666667 0 0 0-42.666667 42.666667v213.333333a42.666667 42.666667 0 0 0 42.666667 42.666667h213.333333a42.666667 42.666667 0 0 0 42.666667-42.666667V128a42.666667 42.666667 0 0 0-42.666667-42.666667z m-341.333334 384H128a128 128 0 0 1-128-128V128a128 128 0 0 1 128-128h213.333333a128 128 0 0 1 128 128v213.333333a128 128 0 0 1-128 128zM128 85.333333a42.666667 42.666667 0 0 0-42.666667 42.666667v213.333333a42.666667 42.666667 0 0 0 42.666667 42.666667h213.333333a42.666667 42.666667 0 0 0 42.666667-42.666667V128a42.666667 42.666667 0 0 0-42.666667-42.666667z" p-id="16334"></path></svg>