<?xml version="1.0" standalone="no"?><!DOCTYPE svg PUBLIC "-//W3C//DTD SVG 1.1//EN" "http://www.w3.org/Graphics/SVG/1.1/DTD/svg11.dtd"><svg t="1556097946544" class="icon" style="" viewBox="0 0 1025 1024" version="1.1" xmlns="http://www.w3.org/2000/svg" p-id="3662" xmlns:xlink="http://www.w3.org/1999/xlink" width="200.1953125" height="200"><defs><style type="text/css"></style></defs><path d="M408.576 511.488c29.184 0 56.832-6.144 81.92-17.408-73.216-32.256-124.416-106.496-124.416-193.024 0-86.528 51.2-160.768 124.416-193.024-25.088-11.264-52.736-17.408-81.92-17.408-114.176 0-206.336 94.208-206.336 210.432s92.672 210.432 206.336 210.432zM217.6 860.16c-18.944-89.088 20.992-160.768 71.168-217.6 47.104-54.784 62.976-73.728 148.992-78.848h-163.84c-86.528 5.12-102.4 24.064-148.992 78.848-50.176 56.832-90.112 128.512-71.168 217.6 20.992 58.368 77.824 71.68 131.072 71.68h163.84c-53.76 0-110.08-13.312-131.072-71.68z" p-id="3663"></path><path d="M411.648 301.056c0 116.224 92.16 210.432 206.336 210.432 113.664 0 206.336-94.208 206.336-210.432s-92.672-210.432-206.336-210.432c-113.664 0.512-206.336 94.208-206.336 210.432zM902.144 642.56c-47.104-54.784-62.976-73.728-149.504-78.848h-269.312c-86.528 5.12-102.4 24.064-148.992 78.848-50.176 56.832-90.112 128.512-71.168 217.6 20.992 58.368 77.824 71.68 131.072 71.68h447.488c53.76 0 110.08-13.312 131.584-71.68 18.944-88.576-20.992-160.768-71.168-217.6z" p-id="3664"></path></svg>