<?xml version="1.0" standalone="no"?><!DOCTYPE svg PUBLIC "-//W3C//DTD SVG 1.1//EN" "http://www.w3.org/Graphics/SVG/1.1/DTD/svg11.dtd"><svg t="1552553792459" class="icon" style="" viewBox="0 0 1024 1024" version="1.1" xmlns="http://www.w3.org/2000/svg" p-id="4541" xmlns:xlink="http://www.w3.org/1999/xlink" width="200" height="200"><defs><style type="text/css"></style></defs><path d="M93 426h6.12l-3.39 3.41a50.25 50.25 0 0 0 0 70.71l34.77 35a50 50 0 0 0 70.95 0l1.55-1.56V536a50 50 0 0 0 50 50h49a50 50 0 0 0 50-50v-4.17l3.47 3.46a50 50 0 0 0 70.6 0l35.57-35.47a50 50 0 0 0 0-70.82l-3-3H463a50 50 0 0 0 50-50v-50a50 50 0 0 0-50-50h-2.44l2.15-2.15a50 50 0 0 0 0-70.71l-35.36-35.36a50 50 0 0 0-70.71 0l-3.64 3.64V166a50 50 0 0 0-50-50h-50a50 50 0 0 0-50 50v3.7l-2.45-2.44a50 50 0 0 0-70.6 0l-35.57 35.47a50 50 0 0 0 0 70.82l2.46 2.45H93a50 50 0 0 0-50 50v50a50 50 0 0 0 50 50z m183-169a90 90 0 1 1-90 90 90 90 0 0 1 90-90zM513 191a75 75 0 0 1 75-75h320a75 75 0 0 1 0 150H588a75 75 0 0 1-75-75zM983 511a75 75 0 0 1-75 75H588a75 75 0 0 1 0-150h320a75 75 0 0 1 75 75zM982 831a75 75 0 0 1-75 75H117a75 75 0 0 1 0-150h790a75 75 0 0 1 75 75z" p-id="4542"></path></svg>