<?xml version="1.0" standalone="no"?><!DOCTYPE svg PUBLIC "-//W3C//DTD SVG 1.1//EN" "http://www.w3.org/Graphics/SVG/1.1/DTD/svg11.dtd"><svg t="1552553663559" class="icon" style="" viewBox="0 0 1041 1024" version="1.1" xmlns="http://www.w3.org/2000/svg" p-id="1527" xmlns:xlink="http://www.w3.org/1999/xlink" width="203.3203125" height="200"><defs><style type="text/css"></style></defs><path d="M1019.733333 465.066667c-4.266667-21.333333-25.6-42.666667-46.933333-46.933334l-17.066667-4.266666c-38.4-12.8-72.533333-38.4-93.866666-72.533334-21.333333-38.4-25.6-81.066667-17.066667-119.466666l4.266667-17.066667c8.533333-21.333333 0-51.2-21.333334-64 0 0-17.066667-12.8-59.733333-38.4-42.666667-25.6-64-29.866667-64-29.866667-21.333333-8.533333-51.2 0-68.266667 17.066667l-12.8 12.8c-25.6 25.6-68.266667 42.666667-110.933333 42.666667s-85.333333-17.066667-115.2-42.666667L388.266667 85.333333c-17.066667-12.8-46.933333-21.333333-68.266667-12.8 0 0-17.066667 8.533333-64 29.866667-42.666667 25.6-59.733333 38.4-59.733333 38.4-17.066667 12.8-25.6 42.666667-21.333334 64l4.266667 17.066667c8.533333 38.4 4.266667 81.066667-17.066667 119.466666-21.333333 34.133333-55.466667 59.733333-93.866666 72.533334l-17.066667 4.266666c-21.333333 4.266667-42.666667 25.6-46.933333 46.933334 0 0-4.266667 21.333333-4.266667 68.266666 0 51.2 4.266667 68.266667 4.266667 68.266667 4.266667 21.333333 25.6 42.666667 46.933333 46.933333l17.066667 4.266667c38.4 12.8 72.533333 38.4 98.133333 72.533333 21.333333 42.666667 25.6 85.333333 17.066667 123.733334l-4.266667 17.066666c-8.533333 21.333333 0 51.2 21.333333 64 0 0 17.066667 12.8 59.733334 38.4 42.666667 25.6 64 29.866667 64 29.866667 21.333333 8.533333 51.2 0 68.266666-17.066667l12.8-12.8c29.866667-25.6 68.266667-42.666667 115.2-42.666666 42.666667 0 85.333333 17.066667 115.2 42.666666l12.8 12.8c17.066667 17.066667 46.933333 21.333333 68.266667 17.066667 0 0 17.066667-8.533333 64-29.866667 42.666667-25.6 59.733333-38.4 59.733333-38.4 17.066667-12.8 25.6-42.666667 21.333334-64l-4.266667-17.066666c-8.533333-38.4-4.266667-81.066667 17.066667-119.466667 21.333333-38.4 55.466667-64 98.133333-72.533333l17.066667-4.266667c21.333333-4.266667 42.666667-25.6 46.933333-46.933333 0 0 4.266667-21.333333 4.266667-68.266667-17.066667-51.2-21.333333-72.533333-21.333334-72.533333zM512 695.466667c-89.6 0-166.4-72.533333-166.4-162.133334 0-89.6 72.533333-162.133333 166.4-162.133333 89.6 0 166.4 72.533333 166.4 162.133333-4.266667 89.6-76.8 162.133333-166.4 162.133334z m0 0" p-id="1528"></path></svg>