<?xml version="1.0" standalone="no"?><!DOCTYPE svg PUBLIC "-//W3C//DTD SVG 1.1//EN" "http://www.w3.org/Graphics/SVG/1.1/DTD/svg11.dtd"><svg t="1556161427736" class="icon" style="" viewBox="0 0 1024 1024" version="1.1" xmlns="http://www.w3.org/2000/svg" p-id="3913" xmlns:xlink="http://www.w3.org/1999/xlink" width="200" height="200"><defs><style type="text/css"></style></defs><path d="M96.1 373.4s149.3 181.7 203.4 204c8 4.5 28.9 15.8 48.1 1.7 67.2-59.8 134.1-117.4 201.3-177.2 0 0 47.1-51.9 83.5-51.2s58.7 19.4 58.7 19.4 42 33 93 79.8c50.1 46 108.4 106.7 144.9 159.5 0 0 11.6 22.3-4.6 39.9 0 0-138-159.8-201.5-200.2 0 0-19.9-16.9-46.9-3.1-73.2 66.1-146.5 132.2-219.7 198.2 0 0-38.4 34.9-76.2 29.7C357.9 672 337 660 337 660S182.8 540.2 91.1 417.1c-6.4-8.9-2-29.5 5-43.7" p-id="3914"></path><path d="M63.2 539.4s-21.9 58.5 185.2 278.5C431.2 1012 576.6 945 576.6 945s103-37.4 210.4-142.4l118.5-115.4-51.6-53.9s-7.8-6.9-16.1 1.4S666.7 796.3 644.4 811c0 0-93.7 78.6-163.8 77.7 0 0-81.2 5.9-173.9-75-99.1-86.5-137.4-136.9-243.5-274.3" p-id="3915"></path><path d="M793.4 571.7C727.7 633.9 661.9 696 596.1 758.1c0 0-60.6 69.1-135.3 67.2-74.7-1.9-127.7-47.3-166.5-78.5s-156.5-159-191.1-209.2c-22-31.8-35.7-43.8-36.5-92.7 0 0 204.8 251.7 283.4 285.8 0 0 62.8 43 116.8 6.1 56.8-35.5 212.5-193.4 239-216.2 0 0 16.3-16.2 31.5-3.4 15.1 12.9 56 54.5 56 54.5M957.8 485.6s21.9-58.5-185.2-278.5C589.8 13 444.4 80 444.4 80s-103 37.4-210.4 142.4L115.5 337.9l51.6 53.9s7.8 6.9 16.1-1.4 171.1-161.6 193.4-176.3c0 0 93.7-78.6 163.8-77.7 0 0 81.2-5.9 173.9 75 99.1 86.4 137.4 136.9 243.5 274.2" p-id="3916"></path><path d="M227.5 453.3c65.8-62.1 131.6-124.3 197.4-186.4 0 0 60.6-69.1 135.3-67.2s127.7 47.3 166.5 78.5 156.5 159 191.1 209.2c22 31.8 35.7 43.8 36.5 92.7 0 0-204.8-251.7-283.4-285.8 0 0-62.8-43-116.8-6.1-56.8 35.5-212.5 193.4-239 216.2 0 0-16.3 16.2-31.5 3.4-15.1-12.8-56.1-54.5-56.1-54.5" p-id="3917"></path></svg>